# xmcd
#
# Track frame offsets:
#	182
#	8542
#	16247
#	39710
#	84185
#	112572
#	132177
#	156757
#
# Disc length: 2331 seconds
#
# Revision: 5
# Processed by: cddbd v1.5PL3 Copyright (c) Steve Scherf et al.
# Submitted via: EasyCDDAExtractor 6.5.7.1
#
DISCID=47091908
DTITLE=B.B. King - Live In Cook County Jail
DYEAR=1971
DGENRE=Blues
TTITLE0=Introduction
TTITLE1=Every Day I Have The Blues
TTITLE2=How Blue Can You Get
TTITLE3=Worry, Worry
TTITLE4=3 O'Clock Blues - Darlin' You Know I Love You
TTITLE5=Sweet Sixteen
TTITLE6=The Trill Is Gone
TTITLE7=Please Accept My Love
EXTD=Recorded in Performance At Cook County Jail,\nChicago, Illinois, Septembe
EXTD=r 10th, 1970\n\n(p) 1972 by MCA Records\nMCA MCD 31080\n\nPerformers:\nB.
EXTD=B. King (g, voc]\nJohn Browning (tp]\nLouis Hubert (ts]\nBooker Walker (a
EXTD=s]\nRon Levy (p]\nWilbert Freeman (b]\nSonny Freeman (dr]\n\nProduced by 
EXTD=Bill Szymozyk
EXTT0=
EXTT1=
EXTT2=
EXTT3=
EXTT4=
EXTT5=
EXTT6=
EXTT7=
PLAYORDER=
